<svg id="visual" viewBox="0 0 900 600" width="900" height="600" xmlns="http://www.w3.org/2000/svg" xmlns:xlink="http://www.w3.org/1999/xlink" version="1.1"><path d="M0 109L18.8 119C37.7 129 75.3 149 112.8 158C150.3 167 187.7 165 225.2 166C262.7 167 300.3 171 337.8 167C375.3 163 412.7 151 450.2 164C487.7 177 525.3 215 562.8 215C600.3 215 637.7 177 675.2 168C712.7 159 750.3 179 787.8 178C825.3 177 862.7 155 881.3 144L900 133L900 0L881.3 0C862.7 0 825.3 0 787.8 0C750.3 0 712.7 0 675.2 0C637.7 0 600.3 0 562.8 0C525.3 0 487.7 0 450.2 0C412.7 0 375.3 0 337.8 0C300.3 0 262.7 0 225.2 0C187.7 0 150.3 0 112.8 0C75.3 0 37.7 0 18.8 0L0 0Z" fill="#575e7b"></path><path d="M0 331L18.8 337C37.7 343 75.3 355 112.8 360C150.3 365 187.7 363 225.2 350C262.7 337 300.3 313 337.8 312C375.3 311 412.7 333 450.2 344C487.7 355 525.3 355 562.8 355C600.3 355 637.7 355 675.2 349C712.7 343 750.3 331 787.8 326C825.3 321 862.7 323 881.3 324L900 325L900 131L881.3 142C862.7 153 825.3 175 787.8 176C750.3 177 712.7 157 675.2 166C637.7 175 600.3 213 562.8 213C525.3 213 487.7 175 450.2 162C412.7 149 375.3 161 337.8 165C300.3 169 262.7 165 225.2 164C187.7 163 150.3 165 112.8 156C75.3 147 37.7 127 18.8 117L0 107Z" fill="#454c69"></path><path d="M0 409L18.8 419C37.7 429 75.3 449 112.8 452C150.3 455 187.7 441 225.2 434C262.7 427 300.3 427 337.8 428C375.3 429 412.7 431 450.2 431C487.7 431 525.3 429 562.8 429C600.3 429 637.7 431 675.2 435C712.7 439 750.3 445 787.8 450C825.3 455 862.7 459 881.3 461L900 463L900 323L881.3 322C862.7 321 825.3 319 787.8 324C750.3 329 712.7 341 675.2 347C637.7 353 600.3 353 562.8 353C525.3 353 487.7 353 450.2 342C412.7 331 375.3 309 337.8 310C300.3 311 262.7 335 225.2 348C187.7 361 150.3 363 112.8 358C75.3 353 37.7 341 18.8 335L0 329Z" fill="#333a57"></path><path d="M0 517L18.8 522C37.7 527 75.3 537 112.8 540C150.3 543 187.7 539 225.2 534C262.7 529 300.3 523 337.8 520C375.3 517 412.7 517 450.2 521C487.7 525 525.3 533 562.8 537C600.3 541 637.7 541 675.2 541C712.7 541 750.3 541 787.8 540C825.3 539 862.7 537 881.3 536L900 535L900 461L881.3 459C862.7 457 825.3 453 787.8 448C750.3 443 712.7 437 675.2 433C637.7 429 600.3 427 562.8 427C525.3 427 487.7 429 450.2 429C412.7 429 375.3 427 337.8 426C300.3 425 262.7 425 225.2 432C187.7 439 150.3 453 112.8 450C75.3 447 37.7 427 18.8 417L0 407Z" fill="#2c334b"></path><path d="M0 601L18.8 601C37.7 601 75.3 601 112.8 601C150.3 601 187.7 601 225.2 601C262.7 601 300.3 601 337.8 601C375.3 601 412.7 601 450.2 601C487.7 601 525.3 601 562.8 601C600.3 601 637.7 601 675.2 601C712.7 601 750.3 601 787.8 601C825.3 601 862.7 601 881.3 601L900 601L900 533L881.3 534C862.7 535 825.3 537 787.8 538C750.3 539 712.7 539 675.2 539C637.7 539 600.3 539 562.8 535C525.3 531 487.7 523 450.2 519C412.7 515 375.3 515 337.8 518C300.3 521 262.7 527 225.2 532C187.7 537 150.3 541 112.8 538C75.3 535 37.7 525 18.8 520L0 515Z" fill="#262c40"></path></svg>