<svg id="visual" viewBox="0 0 900 600" width="900" height="600" xmlns="http://www.w3.org/2000/svg" xmlns:xlink="http://www.w3.org/1999/xlink" version="1.1"><path d="M0 109L18.8 115C37.7 121 75.3 133 112.8 141C150.3 149 187.7 153 225.2 148C262.7 143 300.3 129 337.8 128C375.3 127 412.7 139 450.2 137C487.7 135 525.3 119 562.8 107C600.3 95 637.7 87 675.2 84C712.7 81 750.3 83 787.8 81C825.3 79 862.7 73 881.3 70L900 67L900 0L881.3 0C862.7 0 825.3 0 787.8 0C750.3 0 712.7 0 675.2 0C637.7 0 600.3 0 562.8 0C525.3 0 487.7 0 450.2 0C412.7 0 375.3 0 337.8 0C300.3 0 262.7 0 225.2 0C187.7 0 150.3 0 112.8 0C75.3 0 37.7 0 18.8 0L0 0Z" fill="#262c40"></path><path d="M0 163L18.8 168C37.7 173 75.3 183 112.8 191C150.3 199 187.7 205 225.2 205C262.7 205 300.3 199 337.8 197C375.3 195 412.7 197 450.2 197C487.7 197 525.3 195 562.8 183C600.3 171 637.7 149 675.2 145C712.7 141 750.3 155 787.8 161C825.3 167 862.7 165 881.3 164L900 163L900 65L881.3 68C862.7 71 825.3 77 787.8 79C750.3 81 712.7 79 675.2 82C637.7 85 600.3 93 562.8 105C525.3 117 487.7 133 450.2 135C412.7 137 375.3 125 337.8 126C300.3 127 262.7 141 225.2 146C187.7 151 150.3 147 112.8 139C75.3 131 37.7 119 18.8 113L0 107Z" fill="#3c4360"></path><path d="M0 343L18.8 335C37.7 327 75.3 311 112.8 322C150.3 333 187.7 371 225.2 378C262.7 385 300.3 361 337.8 359C375.3 357 412.7 377 450.2 374C487.7 371 525.3 345 562.8 336C600.3 327 637.7 335 675.2 336C712.7 337 750.3 331 787.8 343C825.3 355 862.7 385 881.3 400L900 415L900 161L881.3 162C862.7 163 825.3 165 787.8 159C750.3 153 712.7 139 675.2 143C637.7 147 600.3 169 562.8 181C525.3 193 487.7 195 450.2 195C412.7 195 375.3 193 337.8 195C300.3 197 262.7 203 225.2 203C187.7 203 150.3 197 112.8 189C75.3 181 37.7 171 18.8 166L0 161Z" fill="#575e7b"></path><path d="M0 439L18.8 429C37.7 419 75.3 399 112.8 405C150.3 411 187.7 443 225.2 452C262.7 461 300.3 447 337.8 448C375.3 449 412.7 465 450.2 455C487.7 445 525.3 409 562.8 406C600.3 403 637.7 433 675.2 444C712.7 455 750.3 447 787.8 449C825.3 451 862.7 463 881.3 469L900 475L900 413L881.3 398C862.7 383 825.3 353 787.8 341C750.3 329 712.7 335 675.2 334C637.7 333 600.3 325 562.8 334C525.3 343 487.7 369 450.2 372C412.7 375 375.3 355 337.8 357C300.3 359 262.7 383 225.2 376C187.7 369 150.3 331 112.8 320C75.3 309 37.7 325 18.8 333L0 341Z" fill="#3c4360"></path><path d="M0 601L18.8 601C37.7 601 75.3 601 112.8 601C150.3 601 187.7 601 225.2 601C262.7 601 300.3 601 337.8 601C375.3 601 412.7 601 450.2 601C487.7 601 525.3 601 562.8 601C600.3 601 637.7 601 675.2 601C712.7 601 750.3 601 787.8 601C825.3 601 862.7 601 881.3 601L900 601L900 473L881.3 467C862.7 461 825.3 449 787.8 447C750.3 445 712.7 453 675.2 442C637.7 431 600.3 401 562.8 404C525.3 407 487.7 443 450.2 453C412.7 463 375.3 447 337.8 446C300.3 445 262.7 459 225.2 450C187.7 441 150.3 409 112.8 403C75.3 397 37.7 417 18.8 427L0 437Z" fill="#262c40"></path></svg>