<svg id="visual" viewBox="0 0 900 600" width="900" height="600" xmlns="http://www.w3.org/2000/svg" xmlns:xlink="http://www.w3.org/1999/xlink" version="1.1"><rect x="0" y="0" width="900" height="600" fill="#0d1e2b"></rect><defs><linearGradient id="grad1_0" x1="33.3%" y1="0%" x2="100%" y2="100%"><stop offset="20%" stop-color="#0d1e2b" stop-opacity="1"></stop><stop offset="80%" stop-color="#0d1e2b" stop-opacity="1"></stop></linearGradient></defs><defs><linearGradient id="grad2_0" x1="0%" y1="0%" x2="66.7%" y2="100%"><stop offset="20%" stop-color="#0d1e2b" stop-opacity="1"></stop><stop offset="80%" stop-color="#0d1e2b" stop-opacity="1"></stop></linearGradient></defs><g transform="translate(900, 0)"><path d="M0 270.4C-33.7 246.2 -67.4 222 -79.2 191.2C-91.1 160.5 -81 123.1 -112.4 112.4C-143.8 101.8 -216.6 117.8 -249.8 103.5C-283.1 89.2 -276.7 44.6 -270.4 0L0 0Z" fill="#cababa"></path></g><g transform="translate(0, 600)"><path d="M0 -270.4C20.9 -238.9 41.9 -207.3 83.4 -201.4C125 -195.5 187.1 -215.3 191.2 -191.2C195.4 -167.1 141.5 -99.3 145 -60.1C148.6 -20.9 209.5 -10.5 270.4 0L0 0Z" fill="#cababa"></path></g></svg>